<svg width="25" height="26" fill="none" xmlns="http://www.w3.org/2000/svg"><g clip-path="url('#clip0_1_224')"><path d="M24.628 5.843a9.716 9.716 0 0 1-2.786.763 4.865 4.865 0 0 0 2.133-2.685 9.688 9.688 0 0 1-3.081 1.177 4.853 4.853 0 0 0-8.269 4.427 13.78 13.78 0 0 1-10.002-5.07 4.85 4.85 0 0 0-.656 2.439c0 1.683.857 3.17 2.158 4.04a4.84 4.84 0 0 1-2.198-.608v.063a4.855 4.855 0 0 0 3.893 4.758 4.889 4.889 0 0 1-2.192.083A4.855 4.855 0 0 0 8.161 18.6a9.738 9.738 0 0 1-6.027 2.078c-.391 0-.778-.023-1.158-.068a13.724 13.724 0 0 0 7.438 2.18c8.927 0 13.807-7.393 13.807-13.806 0-.208-.005-.418-.015-.627a9.864 9.864 0 0 0 2.42-2.51l.002-.003Z" fill="#fff"/></g><defs><clipPath id="clip0_1_224"><path fill="#fff" transform="translate(0 .7)" d="M0 0h25v25H0z"/></clipPath></defs></svg>