<svg width="20" height="21" fill="none" xmlns="http://www.w3.org/2000/svg"><g clip-path="url('#clip0_1_436')"><path d="M11.25 7.783c0 .692-.558 1.25-1.25 1.25s-1.25-.558-1.25-1.25c0-.691.558-1.25 1.25-1.25s1.25.559 1.25 1.25Zm-.417 7.083V10.7H9.167v4.167h1.666ZM10 19.242a8.543 8.543 0 0 0 0-17.083 8.543 8.543 0 0 0 0 17.083Zm6.875-8.541c0 3.8-3.075 6.875-6.875 6.875A6.871 6.871 0 0 1 3.125 10.7C3.125 6.9 6.2 3.825 10 3.825S16.875 6.9 16.875 10.7Z" fill="#8B98A5"/></g><defs><clipPath id="clip0_1_436"><path fill="#fff" transform="translate(0 .7)" d="M0 0h20v20H0z"/></clipPath></defs></svg>