<svg width="67" height="54" fill="none" xmlns="http://www.w3.org/2000/svg"><g clip-path="url('#clip0_1_16')"><path d="M57.527 4.39A7.78 7.78 0 0 0 50.814.501c-4.998 0-23.71 5.013-23.71 5.013S8.402 10.527 4.064 13.03a7.78 7.78 0 0 0-3.87 6.723c.005 5.01 2.62 14.771 2.62 14.771s2.616 9.76 5.116 14.102a7.78 7.78 0 0 0 6.713 3.887c5.008-.002 23.71-5.013 23.71-5.013s18.712-5.014 23.04-7.514a7.78 7.78 0 0 0 3.871-6.723c-.006-5.01-2.621-14.77-2.621-14.77S60.027 8.73 57.527 4.388v.002Z" fill="#FF3000"/><path d="m29.163 37.107 13.13-13.162-17.952-4.834 4.822 17.996Z" fill="#fff"/></g><defs><clipPath id="clip0_1_16"><path fill="#fff" transform="translate(.19 .5)" d="M0 0h66v53H0z"/></clipPath></defs></svg>