<svg width="72" height="72" fill="none" xmlns="http://www.w3.org/2000/svg"><g clip-path="url('#clip0_1_22')"><path d="M25.282 8.724c-2.256-.48-4.406 1.005-4.875 3.208l-9.15 43.046a4.26 4.26 0 0 0 .593 3.231c.665 1.016 1.738 1.704 3.06 1.985l18.908 4.019c.113.024.227.04.341.052.132.04.267.078.405.107l10.27 2.183a4.125 4.125 0 0 0 4.893-3.178l9.2-43.284A4.125 4.125 0 0 0 55.75 15.2L25.282 8.724Z" fill="#B4ACBC"/><path d="M51.28 17.883a2.25 2.25 0 0 1 2.476-1.19l1.605.341a2.25 2.25 0 0 1 1.733 2.67l-9.2 43.284a2.25 2.25 0 0 1-2.67 1.733l-10.27-2.183a2.25 2.25 0 0 1-1.733-2.669l2.2-10.353c.041-.19.106-.372.193-.544l15.665-31.09Z" fill="#CDC4D6"/><path d="M22.241 12.322c.262-1.229 1.448-2.02 2.65-1.764l28.66 6.092c1.204.256 1.964 1.46 1.703 2.689L47.93 53.794 34.912 62.25a.938.938 0 0 1-.705.13L15.3 58.36c-1.81-.385-2.469-1.761-2.208-2.99l9.15-43.048Z" fill="#F3EEF8"/><path d="m34.587 62.46 13.343-8.666-8.803-1.87a2.25 2.25 0 0 0-2.669 1.732l-1.87 8.803Z" fill="#B4ACBC"/><path d="M31.582 9.296c-.593-1.287-1.768-2.29-3.133-2.621-2.535-.539-4.88 1.18-5.404 3.645-.525 2.467.996 4.665 2.685 5.248 1.405.487 1.93-1.42.776-1.819-.956-.33-1.834-1.518-1.521-2.987.312-1.468 1.614-2.437 3.048-2.132 1.432.305 2.154 1.95 1.93 3.004l.222.047-.034.15c-.524 2.467.997 4.665 2.686 5.248 1.405.487 1.93-1.42.776-1.819-.956-.33-1.834-1.519-1.521-2.988.311-1.467 1.614-2.436 3.048-2.131 1.432.304 2.154 1.949 1.93 3.004l.308.065-.034.15c-.524 2.467.997 4.665 2.684 5.248 1.407.487 1.931-1.42.778-1.819-.957-.33-1.834-1.519-1.521-2.988.311-1.467 1.614-2.436 3.048-2.131 1.432.304 2.154 1.949 1.93 3.004l.279.059-.034.15c-.524 2.466.996 4.664 2.686 5.248 1.405.486 1.931-1.42.776-1.82-.956-.329-1.834-1.518-1.522-2.987.312-1.467 1.614-2.437 3.049-2.132 1.432.305 2.154 1.95 1.93 3.004l1.937.412c.524-2.467-1.206-4.826-3.452-5.37-1.522-.324-2.977.166-4.01 1.146-.584-1.312-1.772-2.334-3.153-2.67-1.532-.325-2.995.173-4.028 1.165-.583-1.324-1.776-2.356-3.165-2.693-1.504-.32-2.944.156-3.974 1.11Z" fill="#BEBEBE"/><path d="M24.96 22.075a.937.937 0 1 0-.39 1.834l23.843 5.067a.937.937 0 1 0 .39-1.834l-23.842-5.067Zm-2.28 6.224a.937.937 0 0 1 1.111-.722l23.843 5.067a.938.938 0 0 1-.39 1.834L23.4 29.411a.937.937 0 0 1-.722-1.112Zm-.058 4.78a.938.938 0 0 0-.39 1.834l23.842 5.068a.937.937 0 1 0 .39-1.834l-23.842-5.068Zm-1.17 5.502a.937.937 0 1 0-.39 1.834l12.839 2.729a.938.938 0 0 0 .39-1.834l-12.839-2.73Z" fill="#998EA4"/></g><defs><clipPath id="clip0_1_22"><path fill="#fff" transform="rotate(12 4.637 63.338)" d="M0 0h60v60H0z"/></clipPath></defs></svg>