<svg width="20" height="21" fill="none" xmlns="http://www.w3.org/2000/svg"><g clip-path="url('#clip0_1_442')"><path d="M17.403 11.692c-1.125 2.066-3.334 4.266-6.982 6.391l-.42.25-.42-.25c-3.648-2.125-5.857-4.325-6.984-6.391-1.134-2.084-1.175-4.05-.429-5.559a4.514 4.514 0 0 1 3.835-2.508C7.378 3.55 8.809 4.092 10 5.3c1.19-1.208 2.622-1.75 3.997-1.675a4.514 4.514 0 0 1 3.834 2.508c.746 1.509.705 3.475-.429 5.559Z" fill="#F91880"/></g><defs><clipPath id="clip0_1_442"><path fill="#fff" transform="translate(0 .7)" d="M0 0h20v20H0z"/></clipPath></defs></svg>