<svg width="21" height="21" fill="none" xmlns="http://www.w3.org/2000/svg"><g clip-path="url('#clip0_1_373')"><path d="M15.78 5.4a4.155 4.155 0 0 0-5.892 0L8.713 6.575 7.53 5.4l1.183-1.184a5.84 5.84 0 0 1 8.25 0 5.84 5.84 0 0 1 0 8.25L15.78 13.65l-1.175-1.184 1.175-1.175a4.155 4.155 0 0 0 0-5.891ZM14.013 8.34l-5.891 5.892-1.175-1.175 5.891-5.891 1.175 1.175Zm-10.016.592L5.18 7.75l1.175 1.183-1.175 1.175a4.154 4.154 0 0 0 0 5.892 4.154 4.154 0 0 0 5.892 0l1.175-1.175L13.43 16l-1.183 1.183a5.84 5.84 0 0 1-8.25 0 5.84 5.84 0 0 1 0-8.25Z" fill="#8B98A5"/></g><defs><clipPath id="clip0_1_373"><path fill="#fff" transform="translate(.48 .7)" d="M0 0h20v20H0z"/></clipPath></defs></svg>