<svg width="21" height="21" fill="none" xmlns="http://www.w3.org/2000/svg"><g clip-path="url('#clip0_1_454')"><path d="M16 5.4a4.154 4.154 0 0 0-5.892 0L8.933 6.575 7.75 5.4l1.183-1.184a5.84 5.84 0 0 1 8.25 0 5.84 5.84 0 0 1 0 8.25L16 13.65l-1.175-1.184L16 11.291A4.154 4.154 0 0 0 16 5.4ZM14.233 8.34l-5.891 5.892-1.175-1.175 5.891-5.891 1.175 1.175Zm-10.016.592L5.4 7.75l1.175 1.183L5.4 10.108A4.154 4.154 0 0 0 5.4 16a4.154 4.154 0 0 0 5.892 0l1.175-1.175L13.65 16l-1.183 1.183a5.84 5.84 0 0 1-8.25 0 5.84 5.84 0 0 1 0-8.25Z" fill="#8B98A5"/></g><defs><clipPath id="clip0_1_454"><path fill="#fff" transform="translate(.7 .7)" d="M0 0h20v20H0z"/></clipPath></defs></svg>