<svg width="21" height="21" fill="none" xmlns="http://www.w3.org/2000/svg"><g clip-path="url('#clip0_1_256')"><path d="M15.78 5.61a4.155 4.155 0 0 0-5.892 0L8.713 6.785 7.53 5.61l1.183-1.184a5.84 5.84 0 0 1 8.25 0 5.84 5.84 0 0 1 0 8.25L15.78 13.86l-1.175-1.183 1.175-1.175a4.155 4.155 0 0 0 0-5.892ZM14.013 8.55l-5.891 5.892-1.175-1.175 5.891-5.892 1.175 1.175Zm-10.016.592L5.18 7.96l1.175 1.183-1.175 1.175a4.155 4.155 0 0 0 0 5.892 4.155 4.155 0 0 0 5.892 0l1.175-1.175 1.183 1.175-1.183 1.183a5.84 5.84 0 0 1-8.25 0 5.84 5.84 0 0 1 0-8.25Z" fill="#8B98A5"/></g><defs><clipPath id="clip0_1_256"><path fill="#fff" transform="translate(.48 .91)" d="M0 0h20v20H0z"/></clipPath></defs></svg>