<svg width="21" height="20" fill="none" xmlns="http://www.w3.org/2000/svg"><g clip-path="url('#clip0_1_627')"><path d="M.72 1.433C.72.64 1.377 0 2.189 0H19.25c.811 0 1.469.641 1.469 1.433v17.134c0 .792-.657 1.433-1.469 1.433H2.19C1.377 20 .72 19.359.72 18.567V1.433Zm6.179 15.31V7.71H3.897v9.031H6.9Zm-1.5-10.265c1.046 0 1.697-.693 1.697-1.56-.019-.887-.65-1.56-1.677-1.56-1.028 0-1.699.674-1.699 1.56 0 .867.651 1.56 1.659 1.56h.02Zm6.135 10.264V11.7c0-.27.02-.54.1-.733.216-.538.71-1.097 1.54-1.097 1.086 0 1.52.827 1.52 2.042v4.832h3.001v-5.18c0-2.776-1.48-4.066-3.455-4.066-1.592 0-2.306.876-2.706 1.492v.031h-.02l.02-.031V7.71h-3c.037.848 0 9.031 0 9.031h3Z" fill="#F1F5F9"/></g><defs><clipPath id="clip0_1_627"><path fill="#fff" transform="translate(.72)" d="M0 0h20v20H0z"/></clipPath></defs></svg>