<svg width="21" height="20" fill="none" xmlns="http://www.w3.org/2000/svg"><g clip-path="url('#clip0_1_624')"><path d="M10.784 2.499h.111c1.027.003 6.234.04 7.637.418a2.513 2.513 0 0 1 1.77 1.775c.125.475.214 1.104.274 1.753l.013.13.027.325.01.13a40.31 40.31 0 0 1 .093 2.446v.094a40.063 40.063 0 0 1-.103 2.575l-.01.131-.011.13c-.063.715-.155 1.425-.294 1.947a2.508 2.508 0 0 1-1.768 1.775c-1.45.39-6.962.418-7.726.42h-.177c-.386 0-1.984-.008-3.659-.066l-.212-.007-.109-.005-.214-.009-.214-.009c-1.387-.061-2.708-.16-3.317-.325a2.51 2.51 0 0 1-1.769-1.773c-.139-.522-.231-1.233-.294-1.948l-.01-.131-.01-.13A39.25 39.25 0 0 1 .72 9.6v-.154c.002-.269.012-1.197.08-2.222l.009-.13.003-.064.01-.13.028-.325.012-.13c.06-.649.15-1.279.275-1.753a2.509 2.509 0 0 1 1.77-1.775c.608-.162 1.93-.262 3.317-.325l.212-.008.215-.008.108-.004.213-.008c1.19-.039 2.38-.06 3.57-.064h.242v-.001ZM8.72 6.51v6.022l5.196-3.01L8.72 6.512Z" fill="#F1F5F9"/></g><defs><clipPath id="clip0_1_624"><path fill="#fff" transform="translate(.72)" d="M0 0h20v20H0z"/></clipPath></defs></svg>