<svg width="21" height="16" fill="none" xmlns="http://www.w3.org/2000/svg"><g clip-path="url('#clip0_1_618')"><path d="M17.672 1.449c2.256 3.339 3.372 7.106 2.955 11.442 0 .01-.004.018-.008.026a.067.067 0 0 1-.019.021 16.482 16.482 0 0 1-4.996 2.537.063.063 0 0 1-.072-.024c-.38-.53-.721-1.088-1.02-1.669a.064.064 0 0 1 .034-.09c.54-.204 1.062-.454 1.56-.747a.064.064 0 0 0 .025-.081.065.065 0 0 0-.02-.025 8 8 0 0 1-.31-.245.062.062 0 0 0-.066-.008c-3.232 1.502-6.772 1.502-10.043 0a.062.062 0 0 0-.066.008c-.1.084-.204.166-.31.245a.065.065 0 0 0-.024.055.064.064 0 0 0 .032.051c.499.29 1.02.541 1.559.749a.063.063 0 0 1 .034.088 11.995 11.995 0 0 1-1.02 1.67.064.064 0 0 1-.072.024 16.536 16.536 0 0 1-4.988-2.54.068.068 0 0 1-.026-.046c-.35-3.75.359-7.547 2.951-11.441a.059.059 0 0 1 .027-.025A16.37 16.37 0 0 1 7.858.154a.064.064 0 0 1 .064.032c.177.314.378.716.514 1.046a15.13 15.13 0 0 1 4.57 0c.15-.357.32-.706.506-1.046a.062.062 0 0 1 .066-.031c1.428.248 2.794.68 4.069 1.27.01.004.02.013.025.024ZM9.202 8.58c.015-1.108-.787-2.025-1.797-2.025-1 0-1.796.909-1.796 2.025 0 1.117.813 2.026 1.796 2.026 1 0 1.796-.909 1.796-2.026Zm6.64 0c.016-1.108-.787-2.025-1.796-2.025-1 0-1.796.909-1.796 2.025 0 1.117.811 2.026 1.796 2.026 1.01 0 1.796-.909 1.796-2.026Z" fill="#E2E8F0"/></g><defs><clipPath id="clip0_1_618"><path fill="#fff" transform="translate(.72 .155)" d="M0 0h20v15.69H0z"/></clipPath></defs></svg>