<svg width="21" height="20" fill="none" xmlns="http://www.w3.org/2000/svg"><g clip-path="url('#clip0_1_630')"><path d="M10.72 0C8.006 0 7.665.013 6.599.06 5.532.11 4.806.278 4.17.525a4.896 4.896 0 0 0-1.771 1.154A4.909 4.909 0 0 0 1.245 3.45C.997 4.085.829 4.812.78 5.875.732 6.944.72 7.284.72 10.001c0 2.715.012 3.055.06 4.122.05 1.065.217 1.79.465 2.427a4.91 4.91 0 0 0 1.154 1.771 4.88 4.88 0 0 0 1.77 1.154c.637.247 1.362.416 2.427.465 1.068.047 1.408.06 4.124.06 2.716 0 3.055-.012 4.122-.06 1.064-.05 1.793-.218 2.43-.465a4.894 4.894 0 0 0 1.77-1.154 4.91 4.91 0 0 0 1.153-1.771c.246-.636.415-1.363.465-2.428.047-1.066.06-1.406.06-4.122s-.012-3.056-.06-4.124c-.05-1.064-.219-1.791-.465-2.426a4.908 4.908 0 0 0-1.154-1.771A4.888 4.888 0 0 0 17.27.525C16.633.278 15.905.109 14.841.06 13.774.012 13.435 0 10.718 0h.003-.001Zm-.896 1.802h.897c2.67 0 2.986.01 4.04.058.975.044 1.505.207 1.858.344.466.181.8.398 1.15.748.35.35.566.683.747 1.15.138.352.3.882.344 1.857.049 1.054.059 1.37.059 4.039 0 2.668-.01 2.986-.059 4.04-.044.974-.207 1.503-.344 1.856-.16.434-.416.827-.748 1.149-.35.35-.683.566-1.15.747-.35.137-.88.3-1.857.345-1.053.047-1.37.059-4.04.059s-2.987-.011-4.041-.059c-.975-.045-1.504-.208-1.856-.345a3.097 3.097 0 0 1-1.15-.747 3.1 3.1 0 0 1-.75-1.15c-.137-.352-.3-.882-.344-1.857-.048-1.053-.058-1.37-.058-4.041 0-2.67.01-2.985.058-4.039.045-.975.207-1.505.345-1.857.181-.467.399-.8.749-1.15a3.09 3.09 0 0 1 1.15-.748c.352-.137.881-.3 1.856-.345.922-.042 1.28-.055 3.144-.056v.002Zm6.235 1.66a1.2 1.2 0 1 0 0 2.4 1.2 1.2 0 0 0 0-2.4ZM10.72 4.865a5.136 5.136 0 1 0-.16 10.271 5.136 5.136 0 0 0 .16-10.271Zm0 1.801a3.334 3.334 0 1 1 0 6.668 3.334 3.334 0 0 1 0-6.668Z" fill="#F1F5F9"/></g><defs><clipPath id="clip0_1_630"><path fill="#fff" transform="translate(.72)" d="M0 0h20v20H0z"/></clipPath></defs></svg>