<svg width="160" height="32" fill="none" xmlns="http://www.w3.org/2000/svg"><g clip-path="url('#clip0_1_38')"><path d="M14.098 5.854c.599-1.843 3.205-1.843 3.804 0l1.241 3.82a2 2 0 0 0 1.902 1.382h4.016c1.938 0 2.744 2.479 1.176 3.618l-3.25 2.36a2 2 0 0 0-.726 2.236l1.241 3.82c.6 1.843-1.51 3.375-3.077 2.236l-3.25-2.36a2 2 0 0 0-2.35 0l-3.25 2.36c-1.567 1.139-3.676-.393-3.077-2.236l1.24-3.82a2 2 0 0 0-.726-2.236l-3.25-2.36c-1.567-1.139-.761-3.618 1.176-3.618h4.017a2 2 0 0 0 1.902-1.382l1.241-3.82Zm32 0c.599-1.843 3.205-1.843 3.804 0l1.241 3.82a2 2 0 0 0 1.902 1.382h4.017c1.937 0 2.742 2.479 1.175 3.618l-3.25 2.36a2 2 0 0 0-.726 2.236l1.241 3.82c.6 1.843-1.51 3.375-3.077 2.236l-3.25-2.36a2 2 0 0 0-2.35 0l-3.25 2.36c-1.567 1.139-3.676-.393-3.077-2.236l1.24-3.82a2 2 0 0 0-.726-2.236l-3.25-2.36c-1.566-1.139-.761-3.618 1.176-3.618h4.017a2 2 0 0 0 1.902-1.382l1.241-3.82Zm32 0c.599-1.843 3.205-1.843 3.804 0l1.241 3.82a2 2 0 0 0 1.902 1.382h4.016c1.938 0 2.743 2.479 1.176 3.618l-3.25 2.36a2 2 0 0 0-.726 2.236l1.241 3.82c.6 1.843-1.51 3.375-3.077 2.236l-3.25-2.36a2 2 0 0 0-2.35 0l-3.25 2.36c-1.567 1.139-3.676-.393-3.077-2.236l1.24-3.82a2 2 0 0 0-.726-2.236l-3.25-2.36c-1.567-1.139-.761-3.618 1.177-3.618h4.016a2 2 0 0 0 1.902-1.382l1.241-3.82Zm32 0c.599-1.843 3.205-1.843 3.804 0l1.241 3.82a2 2 0 0 0 1.902 1.382h4.017c1.937 0 2.743 2.479 1.175 3.618l-3.249 2.36a2.002 2.002 0 0 0-.727 2.236l1.241 3.82c.599 1.843-1.51 3.375-3.077 2.236l-3.249-2.36a2.003 2.003 0 0 0-2.352 0l-3.249 2.36c-1.567 1.139-3.676-.393-3.077-2.236l1.241-3.82a2.002 2.002 0 0 0-.727-2.236l-3.249-2.36c-1.568-1.139-.762-3.618 1.175-3.618h4.017a1.998 1.998 0 0 0 1.902-1.382l1.241-3.82Zm32 0c.599-1.843 3.205-1.843 3.804 0l1.241 3.82a2 2 0 0 0 1.902 1.382h4.017c1.937 0 2.743 2.479 1.175 3.618l-3.249 2.36a2.002 2.002 0 0 0-.727 2.236l1.241 3.82c.599 1.843-1.51 3.375-3.077 2.236l-3.249-2.36a2.003 2.003 0 0 0-2.352 0l-3.249 2.36c-1.567 1.139-3.676-.393-3.077-2.236l1.241-3.82a2.002 2.002 0 0 0-.727-2.236l-3.249-2.36c-1.568-1.139-.762-3.618 1.175-3.618h4.017a1.998 1.998 0 0 0 1.902-1.382l1.241-3.82Z" fill="#F59E0B"/></g><defs><clipPath id="clip0_1_38"><path fill="#fff" d="M0 0h160v32H0z"/></clipPath></defs></svg>