<svg width="21" height="18" fill="none" xmlns="http://www.w3.org/2000/svg"><g clip-path="url('#clip0_1_621')"><path d="M20.63 2.417a8.262 8.262 0 0 1-2.024.576c.326-.057.806-.642.996-.88.29-.357.51-.766.651-1.204 0-.033.033-.08 0-.103a.111.111 0 0 0-.107 0c-.756.41-1.561.723-2.396.931a.167.167 0 0 1-.167-.043 2.33 2.33 0 0 0-.21-.218 4.363 4.363 0 0 0-1.142-.74 4.023 4.023 0 0 0-1.783-.292 4.312 4.312 0 0 0-1.693.465c-.518.284-.974.671-1.34 1.135a4.276 4.276 0 0 0-.814 1.627 4.473 4.473 0 0 0-.042 1.723c0 .097 0 .112-.083.097-3.317-.488-6.038-1.666-8.26-4.192-.1-.112-.152-.112-.23 0-.966 1.47-.496 3.797.712 4.946.163.154.332.303.507.443a4.153 4.153 0 0 1-1.59-.443c-.094-.06-.144-.028-.15.084-.014.154-.014.31 0 .466a4.224 4.224 0 0 0 2.604 3.369c.169.07.346.125.526.16a4.756 4.756 0 0 1-1.557.048c-.114-.023-.154.037-.114.144.686 1.862 2.168 2.428 3.257 2.745.15.023.298.023.465.06l-.028.029c-.32.585-1.619.982-2.214 1.186a7.956 7.956 0 0 1-3.396.437c-.181-.029-.222-.023-.27 0-.045.024 0 .075.052.121.92.594 1.923 1.048 2.977 1.35 4.085 1.127 8.68.297 11.745-2.75 2.41-2.391 3.257-5.69 3.257-8.993 0-.126.153-.2.241-.266a7.985 7.985 0 0 0 1.596-1.666.49.49 0 0 0 .111-.334c0-.071.002-.057-.087-.018Z" fill="#E2E8F0"/></g><defs><clipPath id="clip0_1_621"><path fill="#fff" transform="translate(.72 .435)" d="M0 0h20v17.13H0z"/></clipPath></defs></svg>