<svg width="24" height="24" fill="none" xmlns="http://www.w3.org/2000/svg"><g clip-path="url('#clip0_1_44')"><mask id="mask0_1_44" style="mask-type:luminance" maskUnits="userSpaceOnUse" x="0" y="0" width="24" height="24"><path d="M0 0h24v24H0V0Z" fill="#fff"/></mask><g mask="url('#mask0_1_44')"><path d="M11.987 17.986a5.967 5.967 0 1 0 0-11.933 5.967 5.967 0 0 0 0 11.933Z" fill="#fff"/><path d="m6.82 15.004-5.167-8.95a11.93 11.93 0 0 0 10.335 17.9l5.167-8.95v-.002a5.962 5.962 0 0 1-8.151 2.187 5.962 5.962 0 0 1-2.185-2.185h.001Z" fill="url('#paint0_linear_1_44')"/><path d="m17.154 15.004-5.166 8.949a11.925 11.925 0 0 0 9.467-4.669 11.93 11.93 0 0 0 .865-13.231H11.985a5.963 5.963 0 0 1 5.169 8.951Z" fill="url('#paint1_linear_1_44')"/><path d="M11.987 16.744a4.724 4.724 0 1 0 0-9.447 4.724 4.724 0 0 0 0 9.447Z" fill="#1A73E8"/><path d="M11.987 6.053h10.334a11.928 11.928 0 0 0-17.599-3.5 11.93 11.93 0 0 0-3.069 3.501l5.166 8.95h.002a5.965 5.965 0 0 1 5.166-8.951Z" fill="url('#paint2_linear_1_44')"/></g></g><defs><linearGradient id="paint0_linear_1_44" x1="13.279" y1="23.208" x2="2.945" y2="5.309" gradientUnits="userSpaceOnUse"><stop stop-color="#1E8E3E"/><stop offset="1" stop-color="#34A853"/></linearGradient><linearGradient id="paint1_linear_1_44" x1="10.246" y1="23.984" x2="20.58" y2="6.085" gradientUnits="userSpaceOnUse"><stop stop-color="#FCC934"/><stop offset="1" stop-color="#FBBC04"/></linearGradient><linearGradient id="paint2_linear_1_44" x1="1.653" y1="7.545" x2="22.321" y2="7.545" gradientUnits="userSpaceOnUse"><stop stop-color="#D93025"/><stop offset="1" stop-color="#EA4335"/></linearGradient><clipPath id="clip0_1_44"><path fill="#fff" d="M0 0h24v24H0z"/></clipPath></defs></svg>