<svg width="25" height="25" fill="none" xmlns="http://www.w3.org/2000/svg"><g clip-path="url('#clip0_1_177')"><path d="M11.146 12.138h-3.84a.96.96 0 0 1-.96-.96v-2.88a.96.96 0 0 1 .96-.96h2.88a.96.96 0 0 1 .96.96v5.76c0 2.56-1.28 4.16-3.84 4.8m12.48-6.72h-3.84a.96.96 0 0 1-.96-.96v-2.88a.96.96 0 0 1 .96-.96h2.88a.96.96 0 0 1 .96.96v5.76c0 2.56-1.28 4.16-3.84 4.8" stroke="#F1F5F9" stroke-width="1.92" stroke-linecap="round" stroke-linejoin="round"/></g><defs><clipPath id="clip0_1_177"><path fill="#fff" transform="translate(.73 .7)" d="M0 0h24v24H0z"/></clipPath></defs></svg>