<svg width="25" height="25" fill="none" xmlns="http://www.w3.org/2000/svg"><g clip-path="url('#clip0_1_196')"><mask id="mask0_1_196" style="mask-type:luminance" maskUnits="userSpaceOnUse" x="0" y="0" width="25" height="25"><path d="M.39.7h24v24h-24V.7Z" fill="#fff"/></mask><g mask="url('#mask0_1_196')"><path d="M12.377 18.686a5.967 5.967 0 1 0 0-11.934 5.967 5.967 0 0 0 0 11.934Z" fill="#fff"/><path d="m7.21 15.704-5.167-8.95a11.93 11.93 0 0 0 10.335 17.9l5.167-8.95v-.002a5.964 5.964 0 0 1-10.336.002h.001Z" fill="url('#paint0_linear_1_196')"/><path d="m17.544 15.704-5.166 8.949a11.925 11.925 0 0 0 9.467-4.67 11.931 11.931 0 0 0 .865-13.23H12.375a5.963 5.963 0 0 1 5.169 8.95Z" fill="url('#paint1_linear_1_196')"/><path d="M12.377 17.444a4.724 4.724 0 1 0 0-9.448 4.724 4.724 0 0 0 0 9.448Z" fill="#1A73E8"/><path d="M12.377 6.753h10.334a11.928 11.928 0 0 0-17.599-3.5 11.93 11.93 0 0 0-3.069 3.5l5.166 8.95h.002a5.965 5.965 0 0 1 5.166-8.95Z" fill="url('#paint2_linear_1_196')"/></g></g><defs><linearGradient id="paint0_linear_1_196" x1="13.669" y1="23.908" x2="3.335" y2="6.009" gradientUnits="userSpaceOnUse"><stop stop-color="#1E8E3E"/><stop offset="1" stop-color="#34A853"/></linearGradient><linearGradient id="paint1_linear_1_196" x1="10.636" y1="24.684" x2="20.97" y2="6.785" gradientUnits="userSpaceOnUse"><stop stop-color="#FCC934"/><stop offset="1" stop-color="#FBBC04"/></linearGradient><linearGradient id="paint2_linear_1_196" x1="2.043" y1="8.245" x2="22.711" y2="8.245" gradientUnits="userSpaceOnUse"><stop stop-color="#D93025"/><stop offset="1" stop-color="#EA4335"/></linearGradient><clipPath id="clip0_1_196"><path fill="#fff" transform="translate(.39 .7)" d="M0 0h24v24H0z"/></clipPath></defs></svg>