<svg width="20" height="21" viewBox="0 0 20 21" fill="none" xmlns="http://www.w3.org/2000/svg">
<g clip-path="url(#clip0_1_318)">
<path d="M11.25 7.99365C11.25 8.68532 10.6917 9.24365 10 9.24365C9.30833 9.24365 8.75 8.68532 8.75 7.99365C8.75 7.30199 9.30833 6.74365 10 6.74365C10.6917 6.74365 11.25 7.30199 11.25 7.99365ZM10.8333 15.077V10.9103H9.16666V15.077H10.8333ZM10 19.452C14.7167 19.452 18.5417 15.627 18.5417 10.9103C18.5417 6.19365 14.7167 2.36865 10 2.36865C5.28333 2.36865 1.45833 6.19365 1.45833 10.9103C1.45833 15.627 5.28333 19.452 10 19.452ZM16.875 10.9103C16.875 14.7103 13.8 17.7853 10 17.7853C6.2 17.7853 3.125 14.7103 3.125 10.9103C3.125 7.11032 6.2 4.03532 10 4.03532C13.8 4.03532 16.875 7.11032 16.875 10.9103Z" fill="#8B98A5"/>
</g>
<defs>
<clipPath id="clip0_1_318">
<rect width="20" height="20" fill="white" transform="translate(0 0.910156)"/>
</clipPath>
</defs>
</svg>
