<svg width="25" height="26" viewBox="0 0 25 26" fill="none" xmlns="http://www.w3.org/2000/svg">
<g clip-path="url(#clip0_1_224)">
<path d="M24.6281 5.84269C23.7583 6.22811 22.824 6.48853 21.8417 6.60623C22.8438 6.00623 23.6125 5.05415 23.975 3.92082C23.0375 4.47707 21.999 4.88123 20.8938 5.0979C20.0083 4.15623 18.7479 3.56665 17.3521 3.56665C14.6729 3.56665 12.5 5.73957 12.5 8.42082C12.5 8.79998 12.5438 9.16873 12.625 9.52498C8.59063 9.32186 5.01667 7.38957 2.62292 4.45415C2.20625 5.1729 1.96667 6.00623 1.96667 6.89373C1.96667 8.57707 2.82396 10.0635 4.125 10.9333C3.32917 10.9073 2.58125 10.6896 1.92709 10.326V10.3885C1.92709 12.7396 3.59896 14.701 5.81979 15.1469C5.41146 15.2573 4.98334 15.3156 4.54167 15.3156C4.22917 15.3156 3.92396 15.2864 3.62813 15.2302C4.24584 17.1573 6.0375 18.5614 8.16146 18.5989C6.5 19.901 4.40729 20.6771 2.13438 20.6771C1.74271 20.6771 1.35625 20.6541 0.976044 20.6094C3.12396 21.9875 5.67396 22.7896 8.41354 22.7896C17.3406 22.7896 22.2208 15.3958 22.2208 8.98332C22.2208 8.77498 22.2156 8.56457 22.2063 8.35623C23.1542 7.67082 23.9771 6.81769 24.626 5.84582L24.6281 5.84269Z" fill="white"/>
</g>
<defs>
<clipPath id="clip0_1_224">
<rect width="25" height="25" fill="white" transform="translate(0 0.699951)"/>
</clipPath>
</defs>
</svg>
