<svg width="20" height="21" viewBox="0 0 20 21" fill="none" xmlns="http://www.w3.org/2000/svg">
<g clip-path="url(#clip0_1_436)">
<path d="M11.25 7.7832C11.25 8.47487 10.6916 9.0332 9.99998 9.0332C9.30831 9.0332 8.74998 8.47487 8.74998 7.7832C8.74998 7.09154 9.30831 6.5332 9.99998 6.5332C10.6916 6.5332 11.25 7.09154 11.25 7.7832ZM10.8333 14.8665V10.6999H9.16665V14.8665H10.8333ZM9.99998 19.2415C14.7166 19.2415 18.5416 15.4165 18.5416 10.6999C18.5416 5.9832 14.7166 2.1582 9.99998 2.1582C5.28331 2.1582 1.45831 5.9832 1.45831 10.6999C1.45831 15.4165 5.28331 19.2415 9.99998 19.2415ZM16.875 10.6999C16.875 14.4999 13.8 17.5749 9.99998 17.5749C6.19998 17.5749 3.12498 14.4999 3.12498 10.6999C3.12498 6.89987 6.19998 3.82487 9.99998 3.82487C13.8 3.82487 16.875 6.89987 16.875 10.6999Z" fill="#8B98A5"/>
</g>
<defs>
<clipPath id="clip0_1_436">
<rect width="20" height="20" fill="white" transform="translate(0 0.699951)"/>
</clipPath>
</defs>
</svg>
