<svg width="25" height="26" viewBox="0 0 25 26" fill="none" xmlns="http://www.w3.org/2000/svg">
<g clip-path="url(#clip0_1_393)">
<path d="M24.6281 6.09269C23.7583 6.47811 22.824 6.73853 21.8417 6.85623C22.8438 6.25623 23.6125 5.30415 23.975 4.17082C23.0375 4.72707 21.999 5.13123 20.8938 5.3479C20.0083 4.40623 18.7479 3.81665 17.3521 3.81665C14.6729 3.81665 12.5 5.98957 12.5 8.67082C12.5 9.04998 12.5438 9.41873 12.625 9.77498C8.59063 9.57186 5.01667 7.63957 2.62292 4.70415C2.20625 5.4229 1.96667 6.25623 1.96667 7.14373C1.96667 8.82707 2.82396 10.3135 4.125 11.1833C3.32917 11.1573 2.58125 10.9396 1.92709 10.576V10.6385C1.92709 12.9896 3.59896 14.951 5.81979 15.3969C5.41146 15.5073 4.98334 15.5656 4.54167 15.5656C4.22917 15.5656 3.92396 15.5364 3.62813 15.4802C4.24584 17.4073 6.0375 18.8114 8.16146 18.8489C6.5 20.151 4.40729 20.9271 2.13438 20.9271C1.74271 20.9271 1.35625 20.9041 0.976044 20.8594C3.12396 22.2375 5.67396 23.0396 8.41354 23.0396C17.3406 23.0396 22.2208 15.6458 22.2208 9.23332C22.2208 9.02498 22.2156 8.81457 22.2063 8.60623C23.1542 7.92082 23.9771 7.06769 24.626 6.09582L24.6281 6.09269Z" fill="white"/>
</g>
<defs>
<clipPath id="clip0_1_393">
<rect width="25" height="25" fill="white" transform="translate(0 0.949951)"/>
</clipPath>
</defs>
</svg>
