<svg width="20" height="21" viewBox="0 0 20 21" fill="none" xmlns="http://www.w3.org/2000/svg">
<g clip-path="url(#clip0_1_238)">
<path d="M11.25 7.99316C11.25 8.68483 10.6917 9.24316 10 9.24316C9.30834 9.24316 8.75001 8.68483 8.75001 7.99316C8.75001 7.3015 9.30834 6.74316 10 6.74316C10.6917 6.74316 11.25 7.3015 11.25 7.99316ZM10.8333 15.0765V10.9098H9.16668V15.0765H10.8333ZM10 19.4515C14.7167 19.4515 18.5417 15.6265 18.5417 10.9098C18.5417 6.19316 14.7167 2.36816 10 2.36816C5.28334 2.36816 1.45834 6.19316 1.45834 10.9098C1.45834 15.6265 5.28334 19.4515 10 19.4515ZM16.875 10.9098C16.875 14.7098 13.8 17.7848 10 17.7848C6.20001 17.7848 3.12501 14.7098 3.12501 10.9098C3.12501 7.10983 6.20001 4.03483 10 4.03483C13.8 4.03483 16.875 7.10983 16.875 10.9098Z" fill="#8B98A5"/>
</g>
<defs>
<clipPath id="clip0_1_238">
<rect width="20" height="20" fill="white" transform="translate(0 0.909912)"/>
</clipPath>
</defs>
</svg>
