<svg width="20" height="21" viewBox="0 0 20 21" fill="none" xmlns="http://www.w3.org/2000/svg">
<g clip-path="url(#clip0_1_355)">
<path d="M11.25 7.7832C11.25 8.47487 10.6917 9.0332 10 9.0332C9.30834 9.0332 8.75001 8.47487 8.75001 7.7832C8.75001 7.09154 9.30834 6.5332 10 6.5332C10.6917 6.5332 11.25 7.09154 11.25 7.7832ZM10.8333 14.8665V10.6999H9.16668V14.8665H10.8333ZM10 19.2415C14.7167 19.2415 18.5417 15.4165 18.5417 10.6999C18.5417 5.9832 14.7167 2.1582 10 2.1582C5.28334 2.1582 1.45834 5.9832 1.45834 10.6999C1.45834 15.4165 5.28334 19.2415 10 19.2415ZM16.875 10.6999C16.875 14.4999 13.8 17.5749 10 17.5749C6.20001 17.5749 3.12501 14.4999 3.12501 10.6999C3.12501 6.89987 6.20001 3.82487 10 3.82487C13.8 3.82487 16.875 6.89987 16.875 10.6999Z" fill="#8B98A5"/>
</g>
<defs>
<clipPath id="clip0_1_355">
<rect width="20" height="20" fill="white" transform="translate(0 0.699951)"/>
</clipPath>
</defs>
</svg>
