<svg width="67" height="54" viewBox="0 0 67 54" fill="none" xmlns="http://www.w3.org/2000/svg">
<g clip-path="url(#clip0_1_16)">
<path d="M57.527 4.38998C56.8461 3.21107 55.8678 2.23146 54.6898 1.54902C53.5118 0.86658 52.1754 0.505198 50.814 0.500977C45.816 0.500977 27.104 5.51398 27.104 5.51398C27.104 5.51398 8.402 10.527 4.064 13.03C2.88717 13.7141 1.91042 14.695 1.23132 15.8747C0.552223 17.0545 0.194541 18.3917 0.194 19.753C0.199 24.763 2.814 34.524 2.814 34.524C2.814 34.524 5.43 44.284 7.93 48.626C8.61112 49.8045 9.58953 50.7837 10.7675 51.4658C11.9455 52.1479 13.2818 52.509 14.643 52.513C19.651 52.511 38.353 47.5 38.353 47.5C38.353 47.5 57.065 42.486 61.393 39.986C62.57 39.302 63.547 38.3211 64.2262 37.1414C64.9055 35.9616 65.2634 34.6243 65.264 33.263C65.258 28.253 62.643 18.493 62.643 18.493C62.643 18.493 60.027 8.72998 57.527 4.38798V4.38998Z" fill="#FF3000"/>
<path d="M29.163 37.107L42.293 23.945L24.341 19.111L29.163 37.107Z" fill="white"/>
</g>
<defs>
<clipPath id="clip0_1_16">
<rect width="66" height="53" fill="white" transform="translate(0.190002 0.5)"/>
</clipPath>
</defs>
</svg>
