<svg width="21" height="21" viewBox="0 0 21 21" fill="none" xmlns="http://www.w3.org/2000/svg">
<g clip-path="url(#clip0_1_256)">
<path d="M15.78 5.6098C14.155 3.97647 11.5217 3.97647 9.88832 5.6098L8.71332 6.7848L7.52999 5.6098L8.71332 4.42647C10.9883 2.15146 14.68 2.15146 16.9633 4.42647C19.2383 6.7098 19.2383 10.4015 16.9633 12.6765L15.78 13.8598L14.605 12.6765L15.78 11.5015C17.4133 9.86813 17.4133 7.2348 15.78 5.6098ZM14.0133 8.55147L8.12166 14.4431L6.94666 13.2681L12.8383 7.37647L14.0133 8.55147ZM3.99666 9.14313L5.17999 7.9598L6.35499 9.14313L5.17999 10.3181C3.54666 11.9515 3.54666 14.5848 5.17999 16.2098C6.80499 17.8431 9.43832 17.8431 11.0717 16.2098L12.2467 15.0348L13.43 16.2098L12.2467 17.3931C9.97166 19.6681 6.27999 19.6681 3.99666 17.3931C1.72166 15.1098 1.72166 11.4181 3.99666 9.14313Z" fill="#8B98A5"/>
</g>
<defs>
<clipPath id="clip0_1_256">
<rect width="20" height="20" fill="white" transform="translate(0.47998 0.909912)"/>
</clipPath>
</defs>
</svg>
