<svg width="21" height="21" viewBox="0 0 21 21" fill="none" xmlns="http://www.w3.org/2000/svg">
<g clip-path="url(#clip0_1_373)">
<path d="M15.78 5.39984C14.155 3.7665 11.5217 3.7665 9.88832 5.39984L8.71332 6.57484L7.52999 5.39984L8.71332 4.2165C10.9883 1.9415 14.68 1.9415 16.9633 4.2165C19.2383 6.49984 19.2383 10.1915 16.9633 12.4665L15.78 13.6498L14.605 12.4665L15.78 11.2915C17.4133 9.65817 17.4133 7.02484 15.78 5.39984ZM14.0133 8.3415L8.12166 14.2332L6.94666 13.0582L12.8383 7.1665L14.0133 8.3415ZM3.99666 8.93317L5.17999 7.74984L6.35499 8.93317L5.17999 10.1082C3.54666 11.7415 3.54666 14.3748 5.17999 15.9998C6.80499 17.6332 9.43832 17.6332 11.0717 15.9998L12.2467 14.8248L13.43 15.9998L12.2467 17.1832C9.97166 19.4582 6.27999 19.4582 3.99666 17.1832C1.72166 14.8998 1.72166 11.2082 3.99666 8.93317Z" fill="#8B98A5"/>
</g>
<defs>
<clipPath id="clip0_1_373">
<rect width="20" height="20" fill="white" transform="translate(0.479996 0.699951)"/>
</clipPath>
</defs>
</svg>
