<svg width="21" height="21" viewBox="0 0 21 21" fill="none" xmlns="http://www.w3.org/2000/svg">
<g clip-path="url(#clip0_1_454)">
<path d="M16 5.39984C14.375 3.7665 11.7417 3.7665 10.1084 5.39984L8.93335 6.57484L7.75002 5.39984L8.93335 4.2165C11.2084 1.9415 14.9 1.9415 17.1834 4.2165C19.4584 6.49984 19.4584 10.1915 17.1834 12.4665L16 13.6498L14.825 12.4665L16 11.2915C17.6334 9.65817 17.6334 7.02484 16 5.39984ZM14.2334 8.3415L8.34169 14.2332L7.16669 13.0582L13.0584 7.1665L14.2334 8.3415ZM4.21669 8.93317L5.40002 7.74984L6.57502 8.93317L5.40002 10.1082C3.76669 11.7415 3.76669 14.3748 5.40002 15.9998C7.02502 17.6332 9.65835 17.6332 11.2917 15.9998L12.4667 14.8248L13.65 15.9998L12.4667 17.1832C10.1917 19.4582 6.50002 19.4582 4.21669 17.1832C1.94169 14.8998 1.94169 11.2082 4.21669 8.93317Z" fill="#8B98A5"/>
</g>
<defs>
<clipPath id="clip0_1_454">
<rect width="20" height="20" fill="white" transform="translate(0.700012 0.699951)"/>
</clipPath>
</defs>
</svg>
