<svg width="20" height="21" viewBox="0 0 20 21" fill="none" xmlns="http://www.w3.org/2000/svg">
<g clip-path="url(#clip0_1_361)">
<path d="M17.4033 11.6917C16.2775 13.7583 14.0692 15.9583 10.4208 18.0833L10.0017 18.3333L9.58167 18.0833C5.9325 15.9583 3.72417 13.7583 2.59667 11.6917C1.46333 9.60833 1.42167 7.64166 2.16833 6.13333C2.9075 4.64166 4.37417 3.70833 6.0025 3.62499C7.37833 3.54999 8.80917 4.09166 10.0008 5.29999C11.1917 4.09166 12.6225 3.54999 13.9975 3.62499C15.6258 3.70833 17.0925 4.64166 17.8317 6.13333C18.5783 7.64166 18.5367 9.60833 17.4033 11.6917Z" fill="#F91880"/>
</g>
<defs>
<clipPath id="clip0_1_361">
<rect width="20" height="20" fill="white" transform="translate(0 0.699951)"/>
</clipPath>
</defs>
</svg>
