<svg width="72" height="72" viewBox="0 0 72 72" fill="none" xmlns="http://www.w3.org/2000/svg">
<g clip-path="url(#clip0_1_22)">
<path d="M25.2817 8.72379C23.0258 8.24429 20.8757 9.72915 20.4075 11.9319L11.2577 54.9781C11.0316 56.0419 11.1952 57.2115 11.8495 58.2094C12.5154 59.225 13.5883 59.9131 14.9106 60.1942L33.8176 64.213C33.9313 64.2372 34.0448 64.2536 34.1594 64.2646C34.2905 64.3059 34.4265 64.3425 34.5641 64.3717L44.8346 66.5548C45.9047 66.7822 47.0214 66.5753 47.9389 65.9794C48.8565 65.3835 49.4997 64.4476 49.7272 63.3774L58.9276 20.0928C59.1551 19.0226 58.9481 17.9059 58.3523 16.9884C57.7565 16.0708 56.8205 15.4276 55.7504 15.2001L25.2817 8.72379Z" fill="#B4ACBC"/>
<path d="M51.2794 17.8826C51.5029 17.4387 51.867 17.0813 52.315 16.8662C52.763 16.651 53.2696 16.5902 53.7558 16.6933L55.3605 17.0344C55.9442 17.1585 56.4547 17.5094 56.7798 18.0098C57.1048 18.5103 57.2176 19.1194 57.0936 19.7031L47.8931 62.9878C47.769 63.5715 47.4182 64.082 46.9177 64.407C46.4172 64.7321 45.8082 64.845 45.2245 64.7209L34.9539 62.5378C34.3702 62.4137 33.8597 62.0629 33.5347 61.5624C33.2097 61.0619 33.0968 60.4528 33.2209 59.8691L35.4216 49.5156C35.4621 49.3269 35.5267 49.1441 35.6138 48.9718L51.2794 17.8826Z" fill="#CDC4D6"/>
<path d="M22.2415 12.322C22.5027 11.0931 23.6887 10.3024 24.8918 10.5581L53.5504 16.6497C54.7553 16.9058 55.5153 18.1102 55.2541 19.339L47.9304 53.7943L34.9118 62.249C34.7035 62.3839 34.4502 62.4307 34.2074 62.3792L15.2986 58.36C13.4884 57.9752 12.8302 56.5989 13.0914 55.37L22.2415 12.322Z" fill="#F3EEF8"/>
<path d="M34.5872 62.4595L47.9303 53.7943L39.127 51.9231C38.5433 51.7991 37.9342 51.9119 37.4338 52.2369C36.9333 52.562 36.5824 53.0725 36.4584 53.6562L34.5872 62.4595Z" fill="#B4ACBC"/>
<path d="M31.5816 9.29617C30.9888 8.00855 29.8142 7.00553 28.4487 6.67503C25.9141 6.13628 23.5685 7.85555 23.0446 10.3205C22.5202 12.7872 24.0409 14.9852 25.7302 15.5685C27.1354 16.0551 27.6596 14.148 26.506 13.7495C25.5505 13.4199 24.6723 12.2307 24.9846 10.7616C25.2965 9.29439 26.5989 8.32525 28.0331 8.63011C29.4655 8.93457 30.1874 10.5794 29.9633 11.6339L30.1852 11.6811L30.1514 11.8311C29.6271 14.2979 31.1477 16.4958 32.8371 17.0792C34.2423 17.5657 34.7665 15.6586 33.6129 15.2601C32.6574 14.9305 31.7792 13.7413 32.0915 12.2722C32.4033 10.805 33.7058 9.83586 35.14 10.1407C36.5724 10.4452 37.2943 12.09 37.0701 13.1445L37.3783 13.21L37.3445 13.36C36.8201 15.8268 38.3408 18.0247 40.0283 18.6077C41.4353 19.0946 41.9595 17.1876 40.8059 16.789C39.8486 16.459 38.9723 15.2702 39.2845 13.8012C39.5964 12.3339 40.8988 11.3648 42.333 11.6696C43.7654 11.9741 44.4873 13.6189 44.2632 14.6735L44.542 14.7327L44.5082 14.8827C43.9838 17.3495 45.5045 19.5474 47.1938 20.1308C48.599 20.6173 49.1251 18.7107 47.9696 18.3117C47.0142 17.9821 46.136 16.7929 46.4482 15.3238C46.7601 13.8566 48.0625 12.8875 49.4968 13.1923C50.9291 13.4968 51.6511 15.1416 51.4269 16.1962L53.3636 16.6078C53.888 14.1411 52.1582 11.7817 49.9123 11.2373C48.3901 10.9137 46.9345 11.4037 45.9019 12.3841C45.3182 11.0716 44.1302 10.0504 42.7486 9.71457C41.2172 9.38906 39.7542 9.88702 38.721 10.8789C38.1379 9.55497 36.9445 8.52305 35.5556 8.18564C34.0517 7.86598 32.6125 8.34216 31.5816 9.29617Z" fill="#BEBEBE"/>
<path d="M24.9608 22.0746C24.7176 22.0229 24.4638 22.0699 24.2553 22.2053C24.0467 22.3407 23.9005 22.5534 23.8488 22.7967C23.7971 23.0399 23.8442 23.2936 23.9796 23.5022C24.115 23.7107 24.3277 23.8569 24.5709 23.9086L48.4133 28.9764C48.6565 29.0281 48.9103 28.9811 49.1188 28.8457C49.3273 28.7103 49.4735 28.4975 49.5252 28.2543C49.5769 28.0111 49.5299 27.7574 49.3945 27.5488C49.259 27.3403 49.0463 27.1941 48.8031 27.1424L24.9608 22.0746ZM22.6793 28.2987C22.731 28.0555 22.8772 27.8428 23.0858 27.7074C23.2943 27.572 23.5481 27.5249 23.7913 27.5766L47.6336 32.6445C47.8768 32.6962 48.0895 32.8424 48.225 33.0509C48.3604 33.2594 48.4074 33.5132 48.3557 33.7564C48.304 33.9996 48.1578 34.2123 47.9493 34.3478C47.7408 34.4832 47.487 34.5302 47.2438 34.4785L23.4014 29.4107C23.1582 29.359 22.9455 29.2128 22.8101 29.0042C22.6747 28.7957 22.6276 28.5419 22.6793 28.2987ZM22.6218 33.0787C22.3786 33.027 22.1248 33.0741 21.9162 33.2095C21.7077 33.3449 21.5615 33.5576 21.5098 33.8008C21.4581 34.044 21.5052 34.2978 21.6406 34.5063C21.776 34.7149 21.9887 34.861 22.2319 34.9127L46.0743 39.9806C46.3175 40.0323 46.5713 39.9853 46.7798 39.8498C46.9883 39.7144 47.1345 39.5017 47.1862 39.2585C47.2379 39.0153 47.1909 38.7615 47.0554 38.553C46.92 38.3445 46.7073 38.1983 46.4641 38.1466L22.6218 33.0787ZM21.4523 38.5808C21.2091 38.5291 20.9553 38.5761 20.7467 38.7116C20.5382 38.847 20.392 39.0597 20.3403 39.3029C20.2886 39.5461 20.3357 39.7999 20.4711 40.0084C20.6065 40.2169 20.8192 40.3631 21.0624 40.4148L33.9006 43.1437C34.1438 43.1954 34.3976 43.1483 34.6061 43.0129C34.8147 42.8775 34.9608 42.6648 35.0125 42.4216C35.0642 42.1784 35.0172 41.9246 34.8818 41.7161C34.7464 41.5075 34.5337 41.3613 34.2904 41.3096L21.4523 38.5808Z" fill="#998EA4"/>
</g>
<defs>
<clipPath id="clip0_1_22">
<rect width="60" height="60" fill="white" transform="translate(13.27 0.419983) rotate(12)"/>
</clipPath>
</defs>
</svg>
