<svg width="20" height="21" viewBox="0 0 20 21" fill="none" xmlns="http://www.w3.org/2000/svg">
<g clip-path="url(#clip0_1_244)">
<path d="M17.4033 11.9016C16.2775 13.9683 14.0691 16.1683 10.4208 18.2933L10.0016 18.5433L9.58164 18.2933C5.93247 16.1683 3.72414 13.9683 2.59664 11.9016C1.46331 9.81829 1.42164 7.85162 2.16831 6.34329C2.90747 4.85162 4.37414 3.91829 6.00247 3.83496C7.37831 3.75996 8.80914 4.30162 10.0008 5.50996C11.1916 4.30162 12.6225 3.75996 13.9975 3.83496C15.6258 3.91829 17.0925 4.85162 17.8316 6.34329C18.5783 7.85162 18.5366 9.81829 17.4033 11.9016Z" fill="#F91880"/>
</g>
<defs>
<clipPath id="clip0_1_244">
<rect width="20" height="20" fill="white" transform="translate(0 0.909912)"/>
</clipPath>
</defs>
</svg>
