<svg width="21" height="16" viewBox="0 0 21 16" fill="none" xmlns="http://www.w3.org/2000/svg">
<g clip-path="url(#clip0_1_618)">
<path d="M17.6722 1.44861C19.9277 4.78772 21.0441 8.55475 20.6272 12.8909C20.6263 12.9002 20.6234 12.9092 20.6188 12.9174C20.6141 12.9255 20.6077 12.9325 20.6001 12.938C19.0919 14.0627 17.402 14.921 15.6037 15.4755C15.5907 15.4797 15.5768 15.4796 15.5639 15.4752C15.5511 15.4709 15.54 15.4624 15.5323 15.4512C15.1519 14.9205 14.8108 14.3627 14.5116 13.7824C14.5074 13.7743 14.5049 13.7655 14.5044 13.7564C14.5038 13.7473 14.5052 13.7382 14.5085 13.7297C14.5117 13.7212 14.5167 13.7135 14.5231 13.7071C14.5296 13.7007 14.5373 13.6957 14.5458 13.6925C15.0862 13.4881 15.6082 13.238 16.1062 12.9451C16.115 12.9397 16.1225 12.9322 16.1278 12.9232C16.1331 12.9143 16.1362 12.9042 16.1368 12.8938C16.1373 12.8834 16.1354 12.8731 16.131 12.8636C16.1267 12.8542 16.1201 12.8459 16.1119 12.8395C16.0061 12.7603 15.9024 12.6785 15.8007 12.5942C15.7917 12.5867 15.7807 12.5818 15.7691 12.5803C15.7574 12.5788 15.7456 12.5807 15.735 12.5857C12.503 14.0876 8.96268 14.0876 5.69215 12.5857C5.68153 12.5807 5.6697 12.5788 5.65806 12.5803C5.64643 12.5818 5.63547 12.5867 5.62648 12.5942C5.52656 12.6784 5.42234 12.7597 5.31671 12.8395C5.30853 12.846 5.30206 12.8544 5.29784 12.8639C5.29362 12.8734 5.29178 12.8838 5.29249 12.8942C5.29319 12.9046 5.29641 12.9146 5.30187 12.9235C5.30734 12.9324 5.31488 12.9398 5.32384 12.9451C5.82273 13.2357 6.34401 13.4861 6.88273 13.6939C6.91842 13.7082 6.93412 13.7467 6.91699 13.7824C6.62292 14.3672 6.2803 14.9235 5.89629 15.4512C5.88847 15.4623 5.87736 15.4705 5.86454 15.4749C5.85172 15.4793 5.83785 15.4795 5.82492 15.4755C4.02981 14.9182 2.34299 14.0591 0.83704 12.9351C0.822759 12.9239 0.813517 12.9075 0.811344 12.8895C0.461593 9.13956 1.16966 5.34258 3.7621 1.44861C3.76833 1.43785 3.77783 1.42936 3.78922 1.42436C5.08419 0.825742 6.45197 0.398966 7.85775 0.154896C7.87037 0.153177 7.88321 0.155243 7.89465 0.16083C7.90608 0.166417 7.9156 0.175274 7.92199 0.186276C8.09901 0.500076 8.30029 0.90231 8.43591 1.2318C9.95031 1.00046 11.4911 1.00046 13.0055 1.2318C13.1569 0.875071 13.326 0.526127 13.5123 0.186276C13.5185 0.17473 13.5282 0.165457 13.54 0.159811C13.5518 0.154165 13.5651 0.152443 13.578 0.154896C15.0055 0.403083 16.3717 0.835271 17.6465 1.42436C17.6574 1.42879 17.6665 1.43828 17.6722 1.44861ZM9.20108 8.58042C9.21678 7.47214 8.4145 6.55499 7.40522 6.55499C6.40593 6.55499 5.60935 7.46358 5.60935 8.58042C5.60935 9.69727 6.42163 10.6059 7.40522 10.6059C8.40593 10.6059 9.20108 9.69727 9.20108 8.58042ZM15.8421 8.58042C15.8578 7.47214 15.0555 6.55499 14.0462 6.55499C13.0469 6.55499 12.2503 7.46358 12.2503 8.58042C12.2503 9.69727 13.0612 10.6059 14.0462 10.6059C15.0555 10.6059 15.8421 9.69727 15.8421 8.58042Z" fill="#E2E8F0"/>
</g>
<defs>
<clipPath id="clip0_1_618">
<rect width="20" height="15.69" fill="white" transform="translate(0.719971 0.154785)"/>
</clipPath>
</defs>
</svg>
