<svg width="31" height="29" viewBox="0 0 31 29" fill="none" xmlns="http://www.w3.org/2000/svg">
<g clip-path="url(#clip0_1_597)">
<path d="M20.81 0H11.144C5.80506 0 1.477 4.32806 1.477 9.667V19.333C1.477 24.6719 5.80506 29 11.144 29H20.81C26.1489 29 30.477 24.6719 30.477 19.333V9.667C30.477 4.32806 26.1489 0 20.81 0Z" fill="#5865F2"/>
<path d="M21.857 9.55479C23.767 12.3838 24.711 15.5748 24.357 19.2478C24.3565 19.2556 24.3544 19.2632 24.3508 19.27C24.3472 19.2769 24.3421 19.283 24.336 19.2878C23.0592 20.2408 21.6285 20.968 20.106 21.4378C20.0951 21.4411 20.0834 21.4408 20.0726 21.4371C20.0618 21.4333 20.0525 21.4262 20.046 21.4168C19.726 20.9688 19.436 20.4968 19.182 20.0018C19.1787 19.995 19.1769 19.9876 19.1765 19.9801C19.1762 19.9725 19.1775 19.965 19.1802 19.958C19.1829 19.951 19.1871 19.9446 19.1924 19.9392C19.1977 19.9338 19.204 19.9296 19.211 19.9268C19.671 19.7518 20.11 19.5418 20.531 19.2938C20.5385 19.2891 20.5448 19.2827 20.5493 19.2751C20.5538 19.2675 20.5564 19.2589 20.5569 19.2501C20.5574 19.2413 20.5558 19.2324 20.5521 19.2244C20.5485 19.2163 20.543 19.2093 20.536 19.2038C20.4466 19.1367 20.3589 19.0673 20.273 18.9958C20.2655 18.9894 20.2563 18.9854 20.2465 18.9842C20.2368 18.9829 20.2269 18.9845 20.218 18.9888C17.482 20.2618 14.484 20.2618 11.716 18.9888C11.707 18.9848 11.6971 18.9834 11.6873 18.9848C11.6776 18.9862 11.6685 18.9904 11.661 18.9968C11.577 19.0668 11.488 19.1368 11.399 19.2038C11.3921 19.2093 11.3866 19.2165 11.3831 19.2246C11.3795 19.2327 11.3779 19.2415 11.3785 19.2504C11.3791 19.2592 11.3818 19.2678 11.3864 19.2753C11.391 19.2829 11.3974 19.2892 11.405 19.2938C11.826 19.5378 12.265 19.7518 12.725 19.9268C12.755 19.9388 12.768 19.9728 12.754 20.0018C12.5049 20.4967 12.2156 20.9703 11.889 21.4178C11.8823 21.4267 11.8731 21.4334 11.8626 21.4369C11.8521 21.4405 11.8407 21.4408 11.83 21.4378C10.31 20.9666 8.88147 20.2395 7.606 19.2878C7.59981 19.283 7.59468 19.2769 7.5909 19.27C7.58711 19.2632 7.58477 19.2556 7.584 19.2478C7.289 16.0698 7.89 12.8528 10.083 9.55379C10.0884 9.54489 10.0964 9.5379 10.106 9.53379C11.2019 9.02688 12.3594 8.66548 13.549 8.45879C13.5598 8.45719 13.5709 8.45891 13.5807 8.46373C13.5905 8.46856 13.5986 8.47625 13.604 8.48579C13.754 8.75179 13.924 9.09279 14.04 9.37179C15.3216 9.17591 16.6254 9.17591 17.907 9.37179C18.023 9.09879 18.187 8.75179 18.336 8.48579C18.3411 8.47605 18.3492 8.46818 18.3591 8.46333C18.369 8.45848 18.3802 8.45689 18.391 8.45879C19.5809 8.66608 20.7387 9.0278 21.835 9.53479C21.845 9.53879 21.852 9.54479 21.857 9.55479ZM14.687 15.5958C14.701 14.6568 14.021 13.8798 13.167 13.8798C12.32 13.8798 11.647 14.6498 11.647 15.5958C11.647 16.5418 12.334 17.3128 13.167 17.3128C14.014 17.3128 14.687 16.5428 14.687 15.5958ZM20.308 15.5958C20.322 14.6568 19.642 13.8798 18.788 13.8798C17.941 13.8798 17.268 14.6498 17.268 15.5958C17.268 16.5418 17.955 17.3128 18.788 17.3128C19.642 17.3128 20.308 16.5428 20.308 15.5958Z" fill="#E2E8F0"/>
</g>
<defs>
<clipPath id="clip0_1_597">
<rect width="30" height="29" fill="white" transform="translate(0.809998)"/>
</clipPath>
</defs>
</svg>
