<svg width="21" height="20" viewBox="0 0 21 20" fill="none" xmlns="http://www.w3.org/2000/svg">
<g clip-path="url(#clip0_1_627)">
<path d="M0.719971 1.4325C0.719971 0.64125 1.37747 0 2.18872 0H19.2512C20.0625 0 20.72 0.64125 20.72 1.4325V18.5675C20.72 19.3588 20.0625 20 19.2512 20H2.18872C1.37747 20 0.719971 19.3588 0.719971 18.5675V1.4325ZM6.89872 16.7425V7.71125H3.89747V16.7425H6.89872ZM5.39872 6.4775C6.44497 6.4775 7.09622 5.785 7.09622 4.9175C7.07747 4.03125 6.44622 3.3575 5.41872 3.3575C4.39122 3.3575 3.71997 4.0325 3.71997 4.9175C3.71997 5.785 4.37122 6.4775 5.37872 6.4775H5.39872ZM11.5337 16.7425V11.6988C11.5337 11.4288 11.5537 11.1587 11.6337 10.9662C11.85 10.4275 12.3437 9.86875 13.1737 9.86875C14.26 9.86875 14.6937 10.6963 14.6937 11.9113V16.7425H17.695V11.5625C17.695 8.7875 16.215 7.4975 14.24 7.4975C12.6475 7.4975 11.9337 8.3725 11.5337 8.98875V9.02H11.5137C11.5204 9.00957 11.527 8.99915 11.5337 8.98875V7.71125H8.53372C8.57122 8.55875 8.53372 16.7425 8.53372 16.7425H11.5337Z" fill="#F1F5F9"/>
</g>
<defs>
<clipPath id="clip0_1_627">
<rect width="20" height="20" fill="white" transform="translate(0.719971)"/>
</clipPath>
</defs>
</svg>
