<svg width="160" height="32" viewBox="0 0 160 32" fill="none" xmlns="http://www.w3.org/2000/svg">
<g clip-path="url(#clip0_1_38)">
<path d="M14.098 5.85399C14.697 4.01099 17.303 4.01099 17.902 5.85399L19.143 9.67399C19.2735 10.0757 19.5278 10.4257 19.8695 10.674C20.2111 10.9222 20.6226 11.056 21.045 11.056H25.061C26.999 11.056 27.805 13.535 26.237 14.674L22.987 17.034C22.6454 17.2823 22.3912 17.6324 22.2608 18.0341C22.1303 18.4357 22.1304 18.8684 22.261 19.27L23.502 23.09C24.102 24.933 21.992 26.465 20.425 25.326L17.175 22.966C16.8334 22.718 16.4221 22.5844 16 22.5844C15.5779 22.5844 15.1666 22.718 14.825 22.966L11.575 25.326C10.008 26.465 7.89897 24.933 8.49797 23.09L9.73797 19.27C9.86853 18.8684 9.86861 18.4357 9.73819 18.0341C9.60777 17.6324 9.35356 17.2823 9.01197 17.034L5.76197 14.674C4.19497 13.535 5.00097 11.056 6.93797 11.056H10.955C11.3773 11.056 11.7888 10.9222 12.1305 10.674C12.4722 10.4257 12.7265 10.0757 12.857 9.67399L14.098 5.85399ZM46.098 5.85399C46.697 4.01099 49.303 4.01099 49.902 5.85399L51.143 9.67399C51.2735 10.0757 51.5278 10.4257 51.8695 10.674C52.2111 10.9222 52.6226 11.056 53.045 11.056H57.062C58.999 11.056 59.804 13.535 58.237 14.674L54.987 17.034C54.6454 17.2823 54.3912 17.6324 54.2608 18.0341C54.1303 18.4357 54.1304 18.8684 54.261 19.27L55.502 23.09C56.102 24.933 53.992 26.465 52.425 25.326L49.175 22.966C48.8334 22.718 48.4221 22.5844 48 22.5844C47.5779 22.5844 47.1666 22.718 46.825 22.966L43.575 25.326C42.008 26.465 39.899 24.933 40.498 23.09L41.738 19.27C41.8685 18.8684 41.8686 18.4357 41.7382 18.0341C41.6078 17.6324 41.3536 17.2823 41.012 17.034L37.762 14.674C36.196 13.535 37.001 11.056 38.938 11.056H42.955C43.3773 11.056 43.7888 10.9222 44.1305 10.674C44.4722 10.4257 44.7265 10.0757 44.857 9.67399L46.098 5.85399ZM78.098 5.85399C78.697 4.01099 81.303 4.01099 81.902 5.85399L83.143 9.67399C83.2735 10.0757 83.5278 10.4257 83.8695 10.674C84.2111 10.9222 84.6226 11.056 85.045 11.056H89.061C90.999 11.056 91.804 13.535 90.237 14.674L86.987 17.034C86.6454 17.2823 86.3912 17.6324 86.2608 18.0341C86.1303 18.4357 86.1304 18.8684 86.261 19.27L87.502 23.09C88.102 24.933 85.992 26.465 84.425 25.326L81.175 22.966C80.8334 22.718 80.4221 22.5844 80 22.5844C79.5779 22.5844 79.1666 22.718 78.825 22.966L75.575 25.326C74.008 26.465 71.899 24.933 72.498 23.09L73.738 19.27C73.8685 18.8684 73.8686 18.4357 73.7382 18.0341C73.6078 17.6324 73.3536 17.2823 73.012 17.034L69.762 14.674C68.195 13.535 69.001 11.056 70.939 11.056H74.955C75.3773 11.056 75.7888 10.9222 76.1305 10.674C76.4722 10.4257 76.7265 10.0757 76.857 9.67399L78.098 5.85399ZM110.098 5.85399C110.697 4.01099 113.303 4.01099 113.902 5.85399L115.143 9.67399C115.273 10.0757 115.528 10.4257 115.869 10.674C116.211 10.9222 116.623 11.056 117.045 11.056H121.062C122.999 11.056 123.805 13.535 122.237 14.674L118.988 17.034C118.646 17.2823 118.392 17.6323 118.261 18.034C118.131 18.4356 118.131 18.8683 118.261 19.27L119.502 23.09C120.101 24.933 117.992 26.465 116.425 25.326L113.176 22.966C112.834 22.7177 112.422 22.5839 112 22.5839C111.577 22.5839 111.166 22.7177 110.824 22.966L107.575 25.326C106.008 26.465 103.899 24.933 104.498 23.09L105.739 19.27C105.869 18.8683 105.869 18.4356 105.739 18.034C105.608 17.6323 105.354 17.2823 105.012 17.034L101.763 14.674C100.195 13.535 101.001 11.056 102.938 11.056H106.955C107.377 11.056 107.789 10.9222 108.13 10.674C108.472 10.4257 108.726 10.0757 108.857 9.67399L110.098 5.85399ZM142.098 5.85399C142.697 4.01099 145.303 4.01099 145.902 5.85399L147.143 9.67399C147.273 10.0757 147.528 10.4257 147.869 10.674C148.211 10.9222 148.623 11.056 149.045 11.056H153.062C154.999 11.056 155.805 13.535 154.237 14.674L150.988 17.034C150.646 17.2823 150.392 17.6323 150.261 18.034C150.131 18.4356 150.131 18.8683 150.261 19.27L151.502 23.09C152.101 24.933 149.992 26.465 148.425 25.326L145.176 22.966C144.834 22.7177 144.422 22.5839 144 22.5839C143.577 22.5839 143.166 22.7177 142.824 22.966L139.575 25.326C138.008 26.465 135.899 24.933 136.498 23.09L137.739 19.27C137.869 18.8683 137.869 18.4356 137.739 18.034C137.608 17.6323 137.354 17.2823 137.012 17.034L133.763 14.674C132.195 13.535 133.001 11.056 134.938 11.056H138.955C139.377 11.056 139.789 10.9222 140.13 10.674C140.472 10.4257 140.726 10.0757 140.857 9.67399L142.098 5.85399Z" fill="#F59E0B"/>
</g>
<defs>
<clipPath id="clip0_1_38">
<rect width="160" height="32" fill="white"/>
</clipPath>
</defs>
</svg>
