<svg width="21" height="20" viewBox="0 0 21 20" fill="none" xmlns="http://www.w3.org/2000/svg">
<g clip-path="url(#clip0_1_630)">
<path d="M10.72 0C8.00622 0 7.66497 0.0125 6.59872 0.06C5.53247 0.11 4.80622 0.2775 4.16997 0.525C3.50259 0.776024 2.89809 1.16978 2.39872 1.67875C1.89007 2.17837 1.49635 2.7828 1.24497 3.45C0.997471 4.085 0.828721 4.8125 0.779971 5.875C0.732471 6.94375 0.719971 7.28375 0.719971 10.0013C0.719971 12.7163 0.732471 13.0563 0.779971 14.1225C0.829971 15.1875 0.997471 15.9137 1.24497 16.55C1.50122 17.2075 1.84247 17.765 2.39872 18.3212C2.95372 18.8775 3.51122 19.22 4.16872 19.475C4.80622 19.7225 5.53122 19.8912 6.59622 19.94C7.66372 19.9875 8.00372 20 10.72 20C13.4362 20 13.775 19.9875 14.8425 19.94C15.9062 19.89 16.635 19.7225 17.2712 19.475C17.9382 19.2239 18.5422 18.8301 19.0412 18.3212C19.5975 17.765 19.9387 17.2075 20.195 16.55C20.4412 15.9137 20.61 15.1875 20.66 14.1225C20.7075 13.0563 20.72 12.7163 20.72 10C20.72 7.28375 20.7075 6.94375 20.66 5.87625C20.61 4.8125 20.4412 4.085 20.195 3.45C19.9436 2.78278 19.5499 2.17834 19.0412 1.67875C18.542 1.16959 17.9375 0.775807 17.27 0.525C16.6325 0.2775 15.905 0.10875 14.8412 0.06C13.7737 0.0125 13.435 0 10.7175 0H10.7212H10.72ZM9.82372 1.8025H10.7212C13.3912 1.8025 13.7075 1.81125 14.7612 1.86C15.7362 1.90375 16.2662 2.0675 16.6187 2.20375C17.085 2.385 17.4187 2.6025 17.7687 2.9525C18.1187 3.3025 18.335 3.635 18.5162 4.1025C18.6537 4.45375 18.8162 4.98375 18.86 5.95875C18.9087 7.0125 18.9187 7.32875 18.9187 9.9975C18.9187 12.6663 18.9087 12.9837 18.86 14.0375C18.8162 15.0125 18.6525 15.5413 18.5162 15.8938C18.3559 16.3279 18.1 16.7205 17.7675 17.0425C17.4175 17.3925 17.085 17.6088 16.6175 17.79C16.2675 17.9275 15.7375 18.09 14.7612 18.135C13.7075 18.1825 13.3912 18.1938 10.7212 18.1938C8.05122 18.1938 7.73372 18.1825 6.67997 18.135C5.70497 18.09 5.17622 17.9275 4.82372 17.79C4.38934 17.6299 3.99638 17.3745 3.67372 17.0425C3.34091 16.72 3.08462 16.3271 2.92372 15.8925C2.78747 15.5412 2.62372 15.0113 2.57997 14.0363C2.53247 12.9825 2.52247 12.6662 2.52247 9.995C2.52247 7.325 2.53247 7.01 2.57997 5.95625C2.62497 4.98125 2.78747 4.45125 2.92497 4.09875C3.10622 3.6325 3.32372 3.29875 3.67372 2.94875C4.02372 2.59875 4.35622 2.3825 4.82372 2.20125C5.17622 2.06375 5.70497 1.90125 6.67997 1.85625C7.60247 1.81375 7.95997 1.80125 9.82372 1.8V1.8025ZM16.0587 3.4625C15.9011 3.4625 15.7451 3.49354 15.5995 3.55384C15.4539 3.61415 15.3216 3.70254 15.2102 3.81397C15.0988 3.9254 15.0104 4.05769 14.9501 4.20328C14.8898 4.34887 14.8587 4.50491 14.8587 4.6625C14.8587 4.82009 14.8898 4.97613 14.9501 5.12172C15.0104 5.26731 15.0988 5.3996 15.2102 5.51103C15.3216 5.62246 15.4539 5.71085 15.5995 5.77116C15.7451 5.83146 15.9011 5.8625 16.0587 5.8625C16.377 5.8625 16.6822 5.73607 16.9072 5.51103C17.1323 5.28598 17.2587 4.98076 17.2587 4.6625C17.2587 4.34424 17.1323 4.03902 16.9072 3.81397C16.6822 3.58893 16.377 3.4625 16.0587 3.4625ZM10.7212 4.865C10.0401 4.85437 9.36359 4.97936 8.73119 5.23268C8.0988 5.486 7.52311 5.86259 7.03766 6.34053C6.5522 6.81847 6.16668 7.38821 5.90352 8.01657C5.64037 8.64494 5.50485 9.31938 5.50485 10.0006C5.50485 10.6819 5.64037 11.3563 5.90352 11.9847C6.16668 12.613 6.5522 13.1828 7.03766 13.6607C7.52311 14.1387 8.0988 14.5153 8.73119 14.7686C9.36359 15.0219 10.0401 15.1469 10.7212 15.1363C12.0694 15.1152 13.3552 14.5649 14.3012 13.6041C15.2471 12.6432 15.7773 11.349 15.7773 10.0006C15.7773 8.65228 15.2471 7.35802 14.3012 6.39719C13.3552 5.43636 12.0694 4.88603 10.7212 4.865ZM10.7212 6.66625C11.6054 6.66625 12.4533 7.01748 13.0785 7.64268C13.7037 8.26788 14.055 9.11583 14.055 10C14.055 10.8842 13.7037 11.7321 13.0785 12.3573C12.4533 12.9825 11.6054 13.3337 10.7212 13.3337C9.83706 13.3337 8.9891 12.9825 8.3639 12.3573C7.7387 11.7321 7.38747 10.8842 7.38747 10C7.38747 9.11583 7.7387 8.26788 8.3639 7.64268C8.9891 7.01748 9.83706 6.66625 10.7212 6.66625Z" fill="#F1F5F9"/>
</g>
<defs>
<clipPath id="clip0_1_630">
<rect width="20" height="20" fill="white" transform="translate(0.719971)"/>
</clipPath>
</defs>
</svg>
