<svg width="21" height="20" viewBox="0 0 21 20" fill="none" xmlns="http://www.w3.org/2000/svg">
<g clip-path="url(#clip0_1_624)">
<path d="M10.7837 2.49854H10.895C11.9225 2.50229 17.1287 2.53979 18.5325 2.91729C18.9568 3.0325 19.3435 3.25706 19.6539 3.56855C19.9643 3.88003 20.1875 4.26752 20.3012 4.69229C20.4275 5.16729 20.5162 5.79604 20.5762 6.44479L20.5887 6.57479L20.6162 6.89979L20.6262 7.02979C20.7075 8.17229 20.7175 9.24228 20.7187 9.47603V9.56979C20.7175 9.81229 20.7062 10.9548 20.6162 12.1448L20.6062 12.276L20.595 12.406C20.5325 13.121 20.44 13.831 20.3012 14.3535C20.1879 14.7785 19.9648 15.1661 19.6543 15.4777C19.3439 15.7892 18.957 16.0137 18.5325 16.1285C17.0825 16.5185 11.5712 16.546 10.8075 16.5473H10.63C10.2437 16.5473 8.64622 16.5398 6.97122 16.4823L6.75872 16.4748L6.64997 16.4698L6.43622 16.461L6.22247 16.4523C4.83497 16.391 3.51372 16.2923 2.90497 16.1273C2.48058 16.0125 2.0938 15.7883 1.78338 15.477C1.47295 15.1657 1.24978 14.7782 1.13622 14.3535C0.997471 13.8323 0.904971 13.121 0.842471 12.406L0.832471 12.2748L0.822471 12.1448C0.76078 11.2978 0.726596 10.449 0.719971 9.59978L0.719971 9.44604C0.722471 9.17729 0.732471 8.24853 0.799971 7.22353L0.808721 7.09479L0.812471 7.02979L0.822471 6.89979L0.849971 6.57479L0.862471 6.44479C0.922471 5.79604 1.01122 5.16604 1.13747 4.69229C1.25084 4.26734 1.47392 3.87967 1.78436 3.56814C2.0948 3.2566 2.48168 3.03215 2.90622 2.91729C3.51497 2.75479 4.83622 2.65479 6.22372 2.59229L6.43622 2.58354L6.65122 2.57604L6.75872 2.57229L6.97247 2.56354C8.16211 2.52525 9.35223 2.504 10.5425 2.49979H10.7837V2.49854ZM8.71997 6.51104V12.5335L13.9162 9.52354L8.71997 6.51104Z" fill="#F1F5F9"/>
</g>
<defs>
<clipPath id="clip0_1_624">
<rect width="20" height="20" fill="white" transform="translate(0.719971)"/>
</clipPath>
</defs>
</svg>
