<svg width="21" height="18" viewBox="0 0 21 18" fill="none" xmlns="http://www.w3.org/2000/svg">
<g clip-path="url(#clip0_1_621)">
<path d="M20.6301 2.41652C19.9831 2.69488 19.3017 2.88759 18.6061 2.99323C18.9318 2.93613 19.4117 2.35085 19.6017 2.11389C19.8914 1.75595 20.1123 1.34745 20.253 0.909079C20.253 0.876246 20.2859 0.829139 20.253 0.806299C20.2366 0.797303 20.2182 0.792587 20.1995 0.792587C20.1807 0.792587 20.1623 0.797303 20.1459 0.806299C19.3898 1.21596 18.5849 1.52867 17.7505 1.73703C17.7214 1.74576 17.6904 1.74638 17.661 1.73884C17.6315 1.73129 17.6047 1.71586 17.5834 1.6942C17.5182 1.61693 17.4481 1.54398 17.3734 1.4758C17.0336 1.17109 16.648 0.921572 16.2307 0.736351C15.6664 0.504941 15.0568 0.40487 14.4481 0.443714C13.8579 0.481127 13.2817 0.639535 12.7554 0.909079C12.2369 1.19315 11.7813 1.58 11.4156 2.04394C11.03 2.52215 10.7529 3.07745 10.6014 3.67129C10.4756 4.23742 10.461 4.8226 10.5586 5.39428C10.5586 5.49135 10.5586 5.50563 10.4757 5.49135C7.15904 5.00315 4.43797 3.82546 2.21541 1.29879C2.11685 1.18744 2.064 1.18744 1.98686 1.29879C1.01985 2.76911 1.48979 5.09594 2.6982 6.24507C2.86104 6.39924 3.02958 6.5477 3.20528 6.6876C2.65105 6.64792 2.11044 6.49744 1.61548 6.24507C1.52121 6.18512 1.47122 6.21652 1.46408 6.3293C1.45122 6.48347 1.45122 6.63906 1.46408 6.79466C1.56107 7.53642 1.85338 8.23915 2.31113 8.83104C2.76887 9.42294 3.37565 9.88277 4.06945 10.1636C4.238 10.2349 4.41512 10.2892 4.59509 10.3249C4.08087 10.4262 3.55523 10.4419 3.03815 10.372C2.92388 10.3491 2.88389 10.4091 2.92388 10.5162C3.60951 12.3776 5.09217 12.9443 6.1806 13.2612C6.33058 13.2841 6.47913 13.2841 6.64625 13.3212L6.61768 13.3497C6.29773 13.935 4.99933 14.3319 4.40369 14.536C3.31709 14.9262 2.15849 15.0753 1.00842 14.9728C0.827017 14.9443 0.785594 14.95 0.738458 14.9728C0.692749 14.9971 0.738458 15.0485 0.789879 15.0941C1.71027 15.6878 2.71334 16.1424 3.76663 16.4431C7.85181 17.5709 12.4469 16.7415 15.5122 13.6938C17.9219 11.3027 18.7689 8.00375 18.7689 4.70052C18.7689 4.5749 18.9218 4.50067 19.0103 4.435C19.62 3.95978 20.1575 3.39863 20.6058 2.76911C20.6831 2.67543 20.7228 2.55638 20.7173 2.43508C20.7173 2.3637 20.7187 2.37798 20.6301 2.41652Z" fill="#E2E8F0"/>
</g>
<defs>
<clipPath id="clip0_1_621">
<rect width="20" height="17.13" fill="white" transform="translate(0.719971 0.435059)"/>
</clipPath>
</defs>
</svg>
