<svg width="24" height="24" viewBox="0 0 24 24" fill="none" xmlns="http://www.w3.org/2000/svg">
<g clip-path="url(#clip0_1_44)">
<mask id="mask0_1_44" style="mask-type:luminance" maskUnits="userSpaceOnUse" x="0" y="0" width="24" height="24">
<path d="M0 0H24V24H0V0Z" fill="white"/>
</mask>
<g mask="url(#mask0_1_44)">
<path d="M11.987 17.986C12.7706 17.986 13.5465 17.8317 14.2705 17.5318C14.9944 17.2319 15.6522 16.7924 16.2063 16.2383C16.7604 15.6842 17.1999 15.0264 17.4998 14.3025C17.7997 13.5785 17.954 12.8026 17.954 12.019C17.954 11.2354 17.7997 10.4595 17.4998 9.73553C17.1999 9.01158 16.7604 8.35378 16.2063 7.7997C15.6522 7.24561 14.9944 6.80608 14.2705 6.50621C13.5465 6.20634 12.7706 6.052 11.987 6.052C10.4045 6.052 8.88674 6.68067 7.76771 7.7997C6.64868 8.91873 6.02002 10.4365 6.02002 12.019C6.02002 13.6015 6.64868 15.1193 7.76771 16.2383C8.88674 17.3573 10.4045 17.986 11.987 17.986Z" fill="white"/>
<path d="M6.82003 15.004L1.65303 6.05396C0.604563 7.86792 0.0523075 9.92601 0.0518192 12.0212C0.0513308 14.1163 0.602626 16.1747 1.65024 17.9891C2.69786 19.8036 4.20485 21.3102 6.0196 22.3572C7.83435 23.4043 9.89286 23.955 11.988 23.954L17.155 15.004V15.002C16.7639 15.6812 16.2426 16.2767 15.6211 16.7543C14.9996 17.2319 14.29 17.5823 13.5329 17.7854C12.7759 17.9885 11.9862 18.0404 11.2091 17.938C10.432 17.8357 9.68268 17.5811 9.00402 17.189C8.09632 16.6653 7.34268 15.9117 6.81903 15.004H6.82003Z" fill="url(#paint0_linear_1_44)"/>
<path d="M17.154 15.004L11.988 23.953C13.8185 23.9535 15.6246 23.5327 17.2663 22.723C18.908 21.9134 20.3412 20.7366 21.455 19.284C22.8917 17.4114 23.7408 15.1549 23.8947 12.7997C24.0487 10.4445 23.5007 8.09663 22.32 6.05298H11.985C12.769 6.05219 13.5453 6.20598 14.2698 6.50555C14.9942 6.80511 15.6524 7.24458 16.2068 7.79879C16.7612 8.35301 17.2009 9.01111 17.5007 9.73542C17.8005 10.4597 17.9546 11.2361 17.954 12.02C17.9542 13.0677 17.6783 14.0969 17.154 15.004Z" fill="url(#paint1_linear_1_44)"/>
<path d="M11.987 16.744C13.2399 16.744 14.4415 16.2463 15.3274 15.3603C16.2133 14.4744 16.711 13.2728 16.711 12.02C16.711 10.7671 16.2133 9.56551 15.3274 8.67959C14.4415 7.79367 13.2399 7.29596 11.987 7.29596C10.7341 7.29596 9.53255 7.79367 8.64663 8.67959C7.76071 9.56551 7.263 10.7671 7.263 12.02C7.263 13.2728 7.76071 14.4744 8.64663 15.3603C9.53255 16.2463 10.7341 16.744 11.987 16.744Z" fill="#1A73E8"/>
<path d="M11.987 6.05298H22.321C21.0082 3.77738 18.9809 1.99884 16.5537 0.993483C14.1266 -0.0118781 11.4354 -0.187816 8.89802 0.492984C7.38433 0.898644 5.9654 1.59855 4.72229 2.55272C3.47917 3.5069 2.43622 4.69664 1.65302 6.05398L6.81902 15.004H6.82102C6.29685 14.0971 6.02072 13.0682 6.02041 12.0207C6.0201 10.9733 6.29562 9.94422 6.81925 9.03704C7.34288 8.12986 8.09616 7.37656 9.00333 6.8529C9.91049 6.32925 10.9396 6.0527 11.987 6.05298Z" fill="url(#paint2_linear_1_44)"/>
</g>
</g>
<defs>
<linearGradient id="paint0_linear_1_44" x1="13.279" y1="23.208" x2="2.94503" y2="5.30895" gradientUnits="userSpaceOnUse">
<stop stop-color="#1E8E3E"/>
<stop offset="1" stop-color="#34A853"/>
</linearGradient>
<linearGradient id="paint1_linear_1_44" x1="10.246" y1="23.984" x2="20.58" y2="6.08498" gradientUnits="userSpaceOnUse">
<stop stop-color="#FCC934"/>
<stop offset="1" stop-color="#FBBC04"/>
</linearGradient>
<linearGradient id="paint2_linear_1_44" x1="1.65302" y1="7.54498" x2="22.321" y2="7.54498" gradientUnits="userSpaceOnUse">
<stop stop-color="#D93025"/>
<stop offset="1" stop-color="#EA4335"/>
</linearGradient>
<clipPath id="clip0_1_44">
<rect width="24" height="24" fill="white"/>
</clipPath>
</defs>
</svg>
