<svg width="25" height="25" viewBox="0 0 25 25" fill="none" xmlns="http://www.w3.org/2000/svg">
<g clip-path="url(#clip0_1_177)">
<path d="M11.146 12.1384H7.306C7.0514 12.1384 6.80722 12.0372 6.62718 11.8572C6.44715 11.6772 6.346 11.433 6.346 11.1784V8.29838C6.346 8.04377 6.44715 7.79959 6.62718 7.61956C6.80722 7.43952 7.0514 7.33838 7.306 7.33838H10.186C10.4406 7.33838 10.6848 7.43952 10.8648 7.61956C11.0449 7.79959 11.146 8.04377 11.146 8.29838V14.0584C11.146 16.6187 9.86632 18.2181 7.306 18.8584M19.786 12.1384H15.946C15.6914 12.1384 15.4472 12.0372 15.2672 11.8572C15.0871 11.6772 14.986 11.433 14.986 11.1784V8.29838C14.986 8.04377 15.0871 7.79959 15.2672 7.61956C15.4472 7.43952 15.6914 7.33838 15.946 7.33838H18.826C19.0806 7.33838 19.3248 7.43952 19.5048 7.61956C19.6849 7.79959 19.786 8.04377 19.786 8.29838V14.0584C19.786 16.6187 18.5063 18.2181 15.946 18.8584" stroke="#F1F5F9" stroke-width="1.92" stroke-linecap="round" stroke-linejoin="round"/>
</g>
<defs>
<clipPath id="clip0_1_177">
<rect width="24" height="24" fill="white" transform="translate(0.730003 0.699951)"/>
</clipPath>
</defs>
</svg>
