<svg width="25" height="25" viewBox="0 0 25 25" fill="none" xmlns="http://www.w3.org/2000/svg">
<g clip-path="url(#clip0_1_182)">
<path d="M7.34336 15.9784H21.7434M21.7434 19.8184H7.34336M15.9834 12.1384H21.7434M21.7434 8.2984H15.9834M10.2234 10.2184H11.1834C11.3732 10.2184 11.5588 10.2747 11.7167 10.3802C11.8746 10.4857 11.9976 10.6356 12.0703 10.811C12.1429 10.9864 12.162 11.1795 12.1249 11.3657C12.0879 11.5519 11.9964 11.723 11.8622 11.8572C11.7279 11.9915 11.5569 12.0829 11.3706 12.12C11.1844 12.157 10.9914 12.138 10.816 12.0653C10.6406 11.9927 10.4906 11.8696 10.3852 11.7117C10.2797 11.5539 10.2234 11.3683 10.2234 11.1784V8.7784C10.2234 8.26918 10.4256 7.78082 10.7857 7.42075C11.1458 7.06068 11.6341 6.8584 12.1434 6.8584M4.46336 10.2184H5.42336C5.61323 10.2184 5.79884 10.2747 5.95671 10.3802C6.11458 10.4857 6.23763 10.6356 6.31029 10.811C6.38295 10.9864 6.40196 11.1795 6.36492 11.3657C6.32788 11.5519 6.23644 11.723 6.10219 11.8572C5.96793 11.9915 5.79687 12.0829 5.61065 12.12C5.42443 12.157 5.2314 12.138 5.05599 12.0653C4.88057 11.9927 4.73064 11.8696 4.62515 11.7117C4.51967 11.5539 4.46336 11.3683 4.46336 11.1784V8.7784C4.46336 8.26918 4.66565 7.78082 5.02572 7.42075C5.38579 7.06068 5.87415 6.8584 6.38336 6.8584" stroke="#F1F5F9" stroke-width="1.92" stroke-linecap="round" stroke-linejoin="round"/>
</g>
<defs>
<clipPath id="clip0_1_182">
<rect width="24" height="24" fill="white" transform="translate(0.919998 0.699951)"/>
</clipPath>
</defs>
</svg>
