<svg width="25" height="25" viewBox="0 0 25 25" fill="none" xmlns="http://www.w3.org/2000/svg">
<g clip-path="url(#clip0_1_187)">
<path d="M7.0017 21.7384C8.06208 21.7384 8.9217 20.8788 8.9217 19.8184C8.9217 18.7581 8.06208 17.8984 7.0017 17.8984C5.94131 17.8984 5.0817 18.7581 5.0817 19.8184C5.0817 20.8788 5.94131 21.7384 7.0017 21.7384Z" stroke="#F1F5F9" stroke-width="1.92" stroke-linecap="round" stroke-linejoin="round"/>
<path d="M17.5617 21.7384C18.6221 21.7384 19.4817 20.8788 19.4817 19.8184C19.4817 18.7581 18.6221 17.8984 17.5617 17.8984C16.5013 17.8984 15.6417 18.7581 15.6417 19.8184C15.6417 20.8788 16.5013 21.7384 17.5617 21.7384Z" stroke="#F1F5F9" stroke-width="1.92" stroke-linecap="round" stroke-linejoin="round"/>
<path d="M17.5617 17.8983H7.0017V4.45825H5.0817" stroke="#F1F5F9" stroke-width="1.92" stroke-linecap="round" stroke-linejoin="round"/>
<path d="M7.00168 6.37842L20.4417 7.33842L19.4817 14.0584H7.00168" stroke="#F1F5F9" stroke-width="1.92" stroke-linecap="round" stroke-linejoin="round"/>
</g>
<defs>
<clipPath id="clip0_1_187">
<rect width="24" height="24" fill="white" transform="translate(0.730011 0.699951)"/>
</clipPath>
</defs>
</svg>
