<svg width="25" height="25" viewBox="0 0 25 25" fill="none" xmlns="http://www.w3.org/2000/svg">
<g clip-path="url(#clip0_1_196)">
<mask id="mask0_1_196" style="mask-type:luminance" maskUnits="userSpaceOnUse" x="0" y="0" width="25" height="25">
<path d="M0.390015 0.699951H24.39V24.7H0.390015V0.699951Z" fill="white"/>
</mask>
<g mask="url(#mask0_1_196)">
<path d="M12.377 18.686C13.1606 18.686 13.9365 18.5316 14.6605 18.2317C15.3844 17.9319 16.0422 17.4923 16.5963 16.9383C17.1504 16.3842 17.5899 15.7264 17.8898 15.0024C18.1897 14.2785 18.344 13.5026 18.344 12.719C18.344 11.9354 18.1897 11.1594 17.8898 10.4355C17.5899 9.71153 17.1504 9.05373 16.5963 8.49965C16.0422 7.94556 15.3844 7.50603 14.6605 7.20616C13.9365 6.90629 13.1606 6.75195 12.377 6.75195C10.7945 6.75195 9.27674 7.38062 8.15771 8.49965C7.03868 9.61868 6.41002 11.1364 6.41002 12.719C6.41002 14.3015 7.03868 15.8192 8.15771 16.9383C9.27674 18.0573 10.7945 18.686 12.377 18.686Z" fill="white"/>
<path d="M7.21002 15.7039L2.04302 6.75391C0.994554 8.56787 0.442299 10.626 0.441811 12.7211C0.441323 14.8163 0.992618 16.8746 2.04024 18.6891C3.08785 20.5035 4.59484 22.0101 6.40959 23.0572C8.22434 24.1043 10.2828 24.655 12.378 24.6539L17.545 15.7039V15.7019C17.1538 16.3811 16.6326 16.9766 16.0111 17.4542C15.3896 17.9318 14.68 18.2822 13.9229 18.4853C13.1659 18.6885 12.3762 18.7403 11.5991 18.638C10.822 18.5356 10.0727 18.2811 9.39402 17.8889C8.48632 17.3653 7.73267 16.6116 7.20902 15.7039H7.21002Z" fill="url(#paint0_linear_1_196)"/>
<path d="M17.544 15.7039L12.378 24.6529C14.2085 24.6535 16.0146 24.2326 17.6563 23.423C19.298 22.6133 20.7312 21.4366 21.845 19.9839C23.2817 18.1114 24.1307 15.8548 24.2847 13.4997C24.4387 11.1445 23.8907 8.79658 22.71 6.75293H12.375C13.1589 6.75214 13.9353 6.90593 14.6597 7.2055C15.3841 7.50506 16.0424 7.94453 16.5968 8.49875C17.1512 9.05296 17.5909 9.71106 17.8907 10.4354C18.1905 11.1597 18.3445 11.936 18.344 12.7199C18.3442 13.7676 18.0683 14.7969 17.544 15.7039Z" fill="url(#paint1_linear_1_196)"/>
<path d="M12.377 17.4438C13.6299 17.4438 14.8315 16.9461 15.7174 16.0602C16.6033 15.1743 17.101 13.9727 17.101 12.7199C17.101 11.467 16.6033 10.2654 15.7174 9.37948C14.8315 8.49356 13.6299 7.99585 12.377 7.99585C11.1241 7.99585 9.92256 8.49356 9.03664 9.37948C8.15072 10.2654 7.65302 11.467 7.65302 12.7199C7.65302 13.9727 8.15072 15.1743 9.03664 16.0602C9.92256 16.9461 11.1241 17.4438 12.377 17.4438Z" fill="#1A73E8"/>
<path d="M12.377 6.75287H22.711C21.3982 4.47727 19.3709 2.69873 16.9437 1.69337C14.5166 0.688012 11.8254 0.512075 9.28802 1.19287C7.77434 1.59853 6.35541 2.29844 5.11229 3.25261C3.86917 4.20679 2.82622 5.39653 2.04302 6.75387L7.20902 15.7039H7.21102C6.68685 14.797 6.41073 13.7681 6.41042 12.7206C6.41011 11.6732 6.68562 10.6441 7.20925 9.73693C7.73288 8.82975 8.48617 8.07645 9.39333 7.55279C10.3005 7.02914 11.3296 6.75259 12.377 6.75287Z" fill="url(#paint2_linear_1_196)"/>
</g>
</g>
<defs>
<linearGradient id="paint0_linear_1_196" x1="13.669" y1="23.9079" x2="3.33502" y2="6.00891" gradientUnits="userSpaceOnUse">
<stop stop-color="#1E8E3E"/>
<stop offset="1" stop-color="#34A853"/>
</linearGradient>
<linearGradient id="paint1_linear_1_196" x1="10.636" y1="24.6839" x2="20.97" y2="6.78493" gradientUnits="userSpaceOnUse">
<stop stop-color="#FCC934"/>
<stop offset="1" stop-color="#FBBC04"/>
</linearGradient>
<linearGradient id="paint2_linear_1_196" x1="2.04302" y1="8.24487" x2="22.711" y2="8.24487" gradientUnits="userSpaceOnUse">
<stop stop-color="#D93025"/>
<stop offset="1" stop-color="#EA4335"/>
</linearGradient>
<clipPath id="clip0_1_196">
<rect width="24" height="24" fill="white" transform="translate(0.390015 0.699951)"/>
</clipPath>
</defs>
</svg>
